Coordinates
version=1
nRows=5
nColumns=63
inDegrees=yes

Units are S.I. units (second, meters, Newtons, ...)
If the header above contains a line with 'inDegrees', this indicates whether rotational values are in degrees (yes) or radians (no).

endheader
time	pelvis_tilt	pelvis_list	pelvis_rotation	pelvis_tx	pelvis_ty	pelvis_tz	hip_flexion_r	hip_adduction_r	hip_rotation_r	knee_angle_r	knee_angle_r_beta	ankle_angle_r	subtalar_angle_r	mtp_angle_r	hip_flexion_l	hip_adduction_l	hip_rotation_l	knee_angle_l	knee_angle_l_beta	ankle_angle_l	subtalar_angle_l	mtp_angle_l	L5_S1_Flex_Ext	L5_S1_Lat_Bending	L5_S1_axial_rotation	L4_L5_Flex_Ext	L4_L5_Lat_Bending	L4_L5_axial_rotation	L3_L4_Flex_Ext	L3_L4_Lat_Bending	L3_L4_axial_rotation	L2_L3_Flex_Ext	L2_L3_Lat_Bending	L2_L3_axial_rotation	L1_L2_Flex_Ext	L1_L2_Lat_Bending	L1_L2_axial_rotation	L1_T12_Flex_Ext	L1_T12_Lat_Bending	L1_T12_axial_rotation	Abs_r3	Abs_r2	Abs_r1	Abs_t1	Abs_t2	neck_flexion	neck_bending	neck_rotation	arm_flex_r	arm_add_r	arm_rot_r	elbow_flex_r	pro_sup_r	wrist_flex_r	wrist_dev_r	arm_flex_l	arm_add_l	arm_rot_l	elbow_flex_l	pro_sup_l	wrist_flex_l	wrist_dev_l
      1.57627119	     -3.43901744	     -3.44765951	     88.21591913	      0.31854206	      0.83917602	      0.66100683	      6.92330280	     -4.68894750	    -10.51404432	      9.74601617	      0.17010007	     30.79066533	      9.42925324	      0.00000000	      8.20969378	      1.24615713	     -1.84736379	      9.28719812	      0.16209219	     31.07387383	      6.91166615	      0.00000000	      0.28881867	     -0.14943171	      0.05829643	      0.53636516	     -0.19874417	      0.06193996	      0.47450020	     -0.36332826	      0.06193996	      0.33009086	     -0.36332826	      0.05100938	      0.26819702	     -0.30472114	      0.04736585	      0.16503099	     -0.23146972	      0.04372232	      2.06300290	     -1.69040138	      0.32422725	      0.00000000	      0.00000000	     27.88840334	      2.20625589	      7.53277630	      0.18658692	    -11.40182146	     30.93789854	     57.73856835	     76.73267698	      4.97330635	      9.57662481	     17.55894068	    -14.09330655	     64.59059367	     51.29079658	     60.79930439	      9.57481804	     -0.35167147
      1.59322034	     -3.37419012	     -3.47606753	     88.39173614	      0.31865484	      0.83943437	      0.66011979	      6.77292114	     -4.49754596	     -9.38944060	      9.46030605	      0.16511349	     30.44322816	      7.87796342	      0.00000000	      8.14721609	      1.23851352	     -1.04410244	      9.19485822	      0.16048055	     30.88589541	      5.99695945	      0.00000000	      0.29167037	     -0.14347789	      0.02889520	      0.54166104	     -0.19082560	      0.03070115	      0.47918525	     -0.34885215	      0.03070115	      0.33335006	     -0.34885215	      0.02528330	      0.27084510	     -0.29258012	      0.02347735	      0.16666045	     -0.22224725	      0.02167140	      2.08337228	     -1.62305061	      0.16070644	      0.00000000	      0.00000000	     27.90663968	      2.17016929	      7.60129969	      0.05603163	    -11.45972385	     30.97482835	     57.80052624	     76.77096870	      5.11530136	     10.23111518	     17.86010089	    -14.26428470	     65.64542429	     51.27846921	     64.06050782	      8.92417474	     -1.51581743
      1.61016949	     -3.32666077	     -3.56174159	     88.71389344	      0.31860199	      0.83965254	      0.65921949	      6.59173286	     -4.34833417	     -8.49140601	      9.02541607	      0.15752323	     30.04447351	      6.62626317	      0.00000000	      8.19783406	      1.23636579	     -0.26312254	      9.19666563	      0.16051210	     30.73840155	      5.44360279	      0.00000000	      0.30685643	     -0.14110262	     -0.02613069	      0.56986307	     -0.18766649	     -0.02776386	      0.50413442	     -0.34307692	     -0.02776386	      0.35070621	     -0.34307692	     -0.02286436	      0.28494688	     -0.28773647	     -0.02123119	      0.17533776	     -0.21856796	     -0.01959802	      2.19184477	     -1.59618109	     -0.14533107	      0.00000000	      0.00000000	     27.92477711	      2.07438496	      7.54879671	      0.11846377	    -11.65136675	     31.92387612	     57.56274708	     72.38739866	      4.72676280	     10.42155220	     18.10162489	    -14.52015979	     66.90164591	     51.70840711	     61.85774938	      8.26664535	     -0.04194847
      1.62711864	     -3.20951392	     -3.53963916	     89.16879650	      0.31836738	      0.83982911	      0.65853929	      6.44908756	     -4.19752081	     -8.20676189	      8.96260154	      0.15642691	     30.01186658	      5.86634196	      0.00000000	      8.07612956	      1.09597502	     -0.93126503	      9.02384238	      0.15749576	     30.77508520	      6.84115909	      0.00000000	      0.29620393	     -0.12661287	     -0.14007936	      0.55008032	     -0.16839512	     -0.14883433	      0.48663344	     -0.30784654	     -0.14883433	      0.33853147	     -0.30784654	     -0.12256944	      0.27505497	     -0.25818897	     -0.11381448	      0.16925093	     -0.19612334	     -0.10505952	      2.11575506	     -1.43227016	     -0.77907940	      0.00000000	      0.00000000	     27.95392590	      2.36276276	      8.20446844	      0.17552213	    -11.64570225	     31.56514132	     57.89762677	     76.52103000	      5.03067922	     12.10637436	     18.31417514	    -14.63833235	     67.10095181	     51.27956874	     70.35967571	      8.41416412	     -3.62519407
      1.64406780	     -3.09901167	     -3.56052878	     89.61153318	      0.31801443	      0.83997488	      0.65795236	      6.30829848	     -4.04444247	     -7.76437981	      8.77137897	      0.15308944	     29.87202050	      4.88891071	      0.00000000	      8.09049083	      1.01211233	     -0.68564173	      9.03882579	      0.15775727	     30.69182312	      7.11779091	      0.00000000	      0.29906940	     -0.11392862	     -0.20708624	      0.55540177	     -0.15152506	     -0.22002913	      0.49134111	     -0.27700604	     -0.22002913	      0.34180641	     -0.27700604	     -0.18120046	      0.27771584	     -0.23232324	     -0.16825757	      0.17088825	     -0.17647543	     -0.15531468	      2.13622278	     -1.28878331	     -1.15175154	      0.00000000	      0.00000000	     27.94981257	      2.23021496	      8.23968497	      0.12860426	    -11.68379356	     31.61745857	     57.97348130	     74.89536417	      4.77800435	     13.13299764	     19.03362690	    -14.75010219	     69.15101421	     51.10815702	     70.85168129	      7.64483374	     -5.20851491
